Coordinates
version=1
nRows=22
nColumns=24
inDegrees=yes

Units are S.I. units (second, meters, Newtons, ...)
Angles are in degrees.

endheader
time	pelvis_tilt	pelvis_list	pelvis_rotation	pelvis_tx	pelvis_ty	pelvis_tz	hip_flexion_r	hip_adduction_r	hip_rotation_r	knee_angle_r	ankle_angle_r	subtalar_angle_r	mtp_angle_r	hip_flexion_l	hip_adduction_l	hip_rotation_l	knee_angle_l	ankle_angle_l	subtalar_angle_l	mtp_angle_l	lumbar_extension	lumbar_bending	lumbar_rotation
      0.01000000	     91.86245441	     15.16445405	    -94.02534550	      0.35128682	      0.28912282	      1.01414555	      5.03377228	     -6.62829602	    -12.55800032	     -9.07414446	    -51.60091253	     -1.74545602	    -25.17324631	    -13.78451492	    -17.79831682	    -12.04168002	    -61.04176718	    -23.33727199	     -0.14557499	     73.45799169	      0.00000000	      0.00000000	      0.00000000
      0.02000000	     91.87858175	     15.20877092	    -94.04063182	      0.35128273	      0.28914653	      1.01415346	      4.95689511	     -6.61050734	    -12.51540936	     -8.80061885	    -51.56545904	     -1.74545602	    -25.17324631	    -13.73630276	    -17.77275825	    -12.06043014	    -61.04710120	    -23.32642075	     -0.14557499	     73.45799169	      0.00000000	      0.00000000	      0.00000000
      0.03000000	     91.88465917	     15.23030809	    -94.04594014	      0.35127598	      0.28913593	      1.01418092	      4.92238909	     -6.60405515	    -12.49646172	     -8.66959748	    -51.55054409	     -1.74545602	    -25.17324631	    -13.71299738	    -17.76579812	    -12.06971733	    -61.05104596	    -23.32040438	     -0.14557499	     73.45799169	      0.00000000	      0.00000000	      0.00000000
      0.04000000	     91.88123942	     15.23815472	    -94.04541826	      0.35128387	      0.28911965	      1.01420933	      4.92018239	     -6.60260908	    -12.49954881	     -8.64015607	    -51.55658512	     -1.74545602	    -25.17324631	    -13.70637776	    -17.77094355	    -12.07240871	    -61.05342251	    -23.31890494	     -0.14557499	     73.45799169	      0.00000000	      0.00000000	      0.00000000
      0.05000000	     91.86955328	     15.24012203	    -94.04253575	      0.35131277	      0.28911165	      1.01420477	      4.94008703	     -6.59983701	    -12.52235086	     -8.66602318	    -51.58481159	     -1.74545602	    -25.17324631	    -13.70763228	    -17.78117944	    -12.07150538	    -61.05378319	    -23.32150484	     -0.14557499	     73.45799169	      0.00000000	      0.00000000	      0.00000000
      0.06000000	     91.85196086	     15.23960915	    -94.03864166	      0.35132744	      0.28911324	      1.01415710	      4.97448531	     -6.59172047	    -12.56180271	     -8.70748063	    -51.63707285	     -1.74545602	    -25.17324631	    -13.70982800	    -17.79123439	    -12.06930325	    -61.05168792	    -23.32762949	     -0.14557499	     73.45799169	      0.00000000	      0.00000000	      0.00000000
      0.07000000	     91.83192004	     15.23684786	    -94.03345150	      0.35125099	      0.28912817	      1.01412417	      5.01732505	     -6.57784428	    -12.61409659	     -8.73822011	    -51.71522500	     -1.74545602	    -25.17324631	    -13.70885879	    -17.79891210	    -12.06711196	    -61.04725495	    -23.33643749	     -0.14557499	     73.45799169	      0.00000000	      0.00000000	      0.00000000
      0.08000000	     91.81291142	     15.23362431	    -94.02680178	      0.35106127	      0.28915886	      1.01417841	      5.06058774	     -6.56159525	    -12.67513079	     -8.74761876	    -51.82053732	     -1.74545602	    -25.17324631	    -13.70334681	    -17.80504298	    -12.06541086	    -61.04141477	    -23.34683214	     -0.14557499	     73.45799169	      0.00000000	      0.00000000	      0.00000000
      0.09000000	     91.79687721	     15.23587153	    -94.01969549	      0.35089402	      0.28918546	      1.01426838	      5.09358458	     -6.54829637	    -12.74174038	     -8.73820626	    -51.95336112	     -1.74545602	    -25.17324631	    -13.69418316	    -17.81169703	    -12.06431659	    -61.03528962	    -23.35771661	     -0.14557499	     73.45799169	      0.00000000	      0.00000000	      0.00000000
      0.10000000	     91.78355952	     15.24791508	    -94.01337864	      0.35091731	      0.28918082	      1.01425828	      5.11045741	     -6.54085899	    -12.81332554	     -8.71823425	    -52.11275690	     -1.74545602	    -25.17324631	    -13.68388019	    -17.81953671	    -12.06413785	    -61.02897165	    -23.36836912	     -0.14557499	     73.45799169	      0.00000000	      0.00000000	      0.00000000
      0.11000000	     91.77133893	     15.26423985	    -94.00794994	      0.35106128	      0.28915850	      1.01416643	      5.11880824	     -6.53647777	    -12.89213849	     -8.69390275	    -52.29550673	     -1.74545602	    -25.17324631	    -13.67554029	    -17.82662159	    -12.06554832	    -61.02101257	    -23.37862048	     -0.14557499	     73.45799169	      0.00000000	      0.00000000	      0.00000000
      0.12000000	     91.75853901	     15.27357211	    -94.00295418	      0.35107785	      0.28916169	      1.01415692	      5.13389826	     -6.52932939	    -12.98052169	     -8.66834249	    -52.49451525	     -1.74545602	    -25.17324631	    -13.67149561	    -17.83002529	    -12.06910148	    -61.00959312	    -23.38864527	     -0.14557499	     73.45799169	      0.00000000	      0.00000000	      0.00000000
      0.13000000	     91.74439321	     15.27212472	    -93.99904583	      0.35090258	      0.28919920	      1.01425740	      5.16246359	     -6.51690361	    -13.07644818	     -8.64550845	    -52.69765448	     -1.74545602	    -25.17324631	    -13.67210851	    -17.82858275	    -12.07455864	    -60.99450503	    -23.39853341	     -0.14557499	     73.45799169	      0.00000000	      0.00000000	      0.00000000
      0.14000000	     91.72987300	     15.26650850	    -93.99757883	      0.35071432	      0.28923974	      1.01432929	      5.19781239	     -6.50211361	    -13.17132765	     -8.63028264	    -52.88840731	     -1.74545602	    -25.17324631	    -13.67540525	    -17.82385074	    -12.08085933	    -60.97798462	    -23.40799901	     -0.14557499	     73.45799169	      0.00000000	      0.00000000	      0.00000000
      0.15000000	     91.71770984	     15.26424354	    -93.99842280	      0.35064617	      0.28925980	      1.01430533	      5.22957523	     -6.48979498	    -13.25218835	     -8.62448668	    -53.04866597	     -1.74545602	    -25.17324631	    -13.67793932	    -17.81860101	    -12.08688442	    -60.96359562	    -23.41642193	     -0.14557499	     73.45799169	      0.00000000	      0.00000000	      0.00000000
      0.16000000	     91.71081351	     15.26737859	    -93.99945247	      0.35065702	      0.28926047	      1.01425633	      5.25200648	     -6.48303212	    -13.30658117	     -8.62573610	    -53.16263041	     -1.74545602	    -25.17324631	    -13.67649542	    -17.81480681	    -12.09220729	    -60.95425847	    -23.42311153	     -0.14557499	     73.45799169	      0.00000000	      0.00000000	      0.00000000
      0.17000000	     91.71035061	     15.27465329	    -93.99867038	      0.35066811	      0.28925465	      1.01426010	      5.26386828	     -6.48224563	    -13.32720288	     -8.63055709	    -53.22010013	     -1.74545602	    -25.17324631	    -13.66964780	    -17.81294597	    -12.09710118	    -60.95095152	    -23.42754470	     -0.14557499	     73.45799169	      0.00000000	      0.00000000	      0.00000000
      0.18000000	     91.71511481	     15.28525944	    -93.99633925	      0.35068634	      0.28924987	      1.01430318	      5.26559410	     -6.48593650	    -13.31415872	     -8.63746002	    -53.21785459	     -1.74545602	    -25.17324631	    -13.65839228	    -17.81237511	    -12.10204107	    -60.95260212	    -23.42942751	     -0.14557499	     73.45799169	      0.00000000	      0.00000000	      0.00000000
      0.19000000	     91.72240237	     15.29849811	    -93.99469936	      0.35077043	      0.28923722	      1.01430119	      5.25903277	     -6.49153217	    -13.27415792	     -8.64689979	    -53.15879181	     -1.74545602	    -25.17324631	    -13.64568294	    -17.81163804	    -12.10738173	    -60.95683739	    -23.42859295	     -0.14557499	     73.45799169	      0.00000000	      0.00000000	      0.00000000
      0.20000000	     91.72984055	     15.31050027	    -93.99575445	      0.35090479	      0.28921232	      1.01422119	      5.24909635	     -6.49601664	    -13.21712727	     -8.65893006	    -53.04949190	     -1.74545602	    -25.17324631	    -13.63518315	    -17.80868384	    -12.11333966	    -60.96121649	    -23.42483075	     -0.14557499	     73.45799169	      0.00000000	      0.00000000	      0.00000000
      0.21000000	     91.73695516	     15.31457793	    -93.99979004	      0.35096157	      0.28919962	      1.01416386	      5.24171725	     -6.49754051	    -13.15168324	     -8.67204677	    -52.89755816	     -1.74545602	    -25.17324631	    -13.62974268	    -17.80184746	    -12.11983620	    -60.96456460	    -23.41777111	     -0.14557499	     73.45799169	      0.00000000	      0.00000000	      0.00000000
      0.22000000	     91.74523190	     15.30859458	    -94.00607398	      0.35088106	      0.28921925	      1.01421738	      5.23581233	     -6.49808498	    -13.08162190	     -8.68529854	    -52.71020437	     -1.74545602	    -25.17324631	    -13.63031513	    -17.79126222	    -12.12606886	    -60.96769750	    -23.40697297	     -0.14557499	     73.45799169	      0.00000000	      0.00000000	      0.00000000
